<svg width="16" height="16" viewBox="0 0 16 16" fill="none" xmlns="http://www.w3.org/2000/svg">
<path d="M6 14.6667H10C13.3333 14.6667 14.6667 13.3333 14.6667 10V6C14.6667 2.66667 13.3333 1.33333 10 1.33333H6C2.66666 1.33333 1.33333 2.66667 1.33333 6V10C1.33333 13.3333 2.66666 14.6667 6 14.6667Z" stroke="#B5C0C8" stroke-linecap="round" stroke-linejoin="round"/>
<path d="M6.06667 8V7.01333C6.06667 5.74 6.96667 5.22667 8.06667 5.86L8.92 6.35333L9.77333 6.84667C10.8733 7.48 10.8733 8.52 9.77333 9.15333L8.92 9.64667L8.06667 10.14C6.96667 10.7733 6.06667 10.2533 6.06667 8.98667V8Z" stroke="#B5C0C8" stroke-miterlimit="10" stroke-linecap="round" stroke-linejoin="round"/>
</svg>
